<?xml version="1.0" encoding="UTF-8"?>
<svg id="Layer_2" data-name="Layer 2" xmlns="http://www.w3.org/2000/svg" viewBox="0 0 9.16 9.16">
  <defs>
    <style>
      .cls-1 {
        fill: #297bff;
      }
    </style>
  </defs>
  <g id="Layer_1-2" data-name="Layer 1">
    <rect class="cls-1" x="1.01" y=".95" width="4.56" height="4.56" rx="2.28" ry="2.28"/>
    <g>
      <path d="M5.85,5.4c.2,.2,.39,.39,.58,.58,.02,.02,.06,.02,.08,.01,.34-.14,.63-.07,.89,.19,.49,.5,.99,.99,1.48,1.48,.36,.36,.35,.8,0,1.15-.13,.13-.26,.26-.45,.3-.27,.06-.51,.01-.71-.18-.22-.21-.44-.43-.65-.65-.3-.3-.61-.61-.91-.91-.25-.25-.31-.54-.18-.87,0-.02,0-.07,0-.08-.19-.2-.39-.39-.58-.59-1.47,1.23-3.66,.88-4.75-.58C-.35,3.93-.18,2.05,1.06,.87c1.21-1.14,3.12-1.17,4.4-.06,1.32,1.14,1.55,3.16,.39,4.59ZM3.3,.64c-1.47,0-2.66,1.19-2.66,2.66,0,1.47,1.19,2.66,2.66,2.66,1.47,0,2.67-1.2,2.66-2.67,0-1.47-1.2-2.66-2.67-2.65Zm5.24,7.61c-.04-.05-.06-.1-.1-.13-.47-.47-.94-.94-1.41-1.41q-.19-.19-.38,0c-.11,.11-.11,.14,0,.25,.47,.47,.94,.94,1.42,1.42q.18,.18,.37,0s.06-.08,.1-.13Z"/>
      <path d="M3.09,3.09c0,.36,0,.71,0,1.07,0,.14-.09,.26-.22,.3-.13,.04-.28,0-.35-.12-.04-.06-.06-.14-.06-.2,0-.69,0-1.39,0-2.08,0-.2,.14-.34,.32-.34,.18,0,.31,.14,.31,.35,0,.35,0,.69,0,1.04h0Z"/>
      <path d="M5.22,3.31c0,.27,0,.54,0,.81,0,.21-.14,.36-.32,.35-.18,0-.32-.15-.32-.35,0-.55,0-1.1,0-1.64,0-.2,.13-.35,.32-.35,.18,0,.32,.14,.32,.35,0,.28,0,.56,0,.84Z"/>
      <path d="M3.52,3.52c0-.21,0-.42,0-.63,0-.2,.13-.33,.31-.33,.19,0,.33,.13,.33,.33,0,.42,0,.84,0,1.27,0,.19-.15,.33-.32,.32-.18,0-.31-.14-.31-.33,0,0,0-.01,0-.02,0-.2,0-.4,0-.6Z"/>
      <path d="M2.02,3.73c0,.14,0,.27,0,.41,0,.19-.14,.34-.32,.33-.18,0-.31-.15-.31-.33,0-.28,0-.55,0-.83,0-.19,.14-.33,.32-.33,.18,0,.31,.14,.31,.33,0,.14,0,.28,0,.42Z"/>
    </g>
  </g>
</svg>