<?xml version="1.0" encoding="UTF-8"?>
<svg id="Layer_2" data-name="Layer 2" xmlns="http://www.w3.org/2000/svg" viewBox="0 0 9.12 7.42">
  <defs>
    <style>
      .cls-1 {
        fill: #297bff;
      }
    </style>
  </defs>
  <g id="Layer_1-2" data-name="Layer 1">
    <rect class="cls-1" x="2.28" y="1.14" width="4.56" height="4.56" rx="2.28" ry="2.28"/>
    <g>
      <path d="M9.12,3.78c-.05,.07-.1,.14-.16,.21-.25,.26-.51,.51-.77,.77-.13,.13-.29,.13-.42,0-.28-.28-.56-.56-.84-.85-.09-.09-.12-.22-.06-.33,.05-.11,.16-.18,.28-.16,.07,.01,.14,.05,.19,.1,.12,.11,.23,.22,.35,.35,.01-.33,0-.64-.1-.94-.37-1.28-1.2-2.08-2.51-2.31-1.29-.22-2.33,.25-3.11,1.31-.02,.03-.04,.05-.06,.08-.1,.13-.26,.16-.39,.08-.13-.09-.17-.26-.07-.4,.22-.35,.5-.65,.83-.9C4.45-.9,7.62,.26,8.18,2.96c.06,.29,.07,.59,.1,.89,.04-.04,.1-.1,.16-.15,.06-.06,.12-.12,.18-.18,.16-.16,.38-.12,.48,.09,0,.01,.01,.02,.02,.03v.14Z"/>
      <path d="M5.62,4.77c.53,.22,.95,.56,1.28,1.03,.1-.13,.19-.25,.28-.38,.07-.1,.17-.16,.3-.14,.21,.04,.3,.27,.18,.46-.33,.51-.76,.91-1.29,1.2-1.36,.76-3.04,.6-4.21-.42-.85-.73-1.28-1.67-1.3-2.8,0-.06,0-.11-.02-.18-.12,.12-.23,.24-.35,.36-.16,.15-.42,.08-.47-.14-.02-.1,0-.19,.07-.26,.29-.29,.58-.58,.87-.87,.11-.11,.28-.11,.39,0,.29,.29,.58,.58,.87,.87,.11,.12,.11,.29,0,.4-.11,.11-.28,.11-.39,0-.12-.12-.24-.24-.36-.36-.12,.62,.29,1.77,.78,2.24,.32-.46,.75-.8,1.28-1.02-.5-.44-.72-.98-.62-1.63,.07-.45,.3-.81,.66-1.08,.72-.54,1.73-.43,2.32,.26,.59,.69,.57,1.79-.23,2.46Zm-2.98,1.41c1.12,.91,2.8,.86,3.84,0-.49-.69-1.15-1.06-2-1.04-.79,.02-1.4,.39-1.84,1.04Zm1.92-3.9c-.63,0-1.14,.51-1.14,1.13,0,.63,.51,1.14,1.13,1.15,.63,0,1.15-.51,1.15-1.14,0-.63-.51-1.14-1.14-1.14Z"/>
    </g>
  </g>
</svg>