<?xml version="1.0" encoding="UTF-8"?>
<svg id="Layer_2" data-name="Layer 2" xmlns="http://www.w3.org/2000/svg" viewBox="0 0 7.75 7.81">
  <defs>
    <style>
      .cls-1 {
        fill: #297bff;
      }
    </style>
  </defs>
  <g id="Layer_1-2" data-name="Layer 1">
    <rect class="cls-1" x="1.59" y="1.62" width="4.56" height="4.56" rx="2.28" ry="2.28"/>
    <g>
      <path d="M4.85,0c.18,.06,.25,.19,.24,.38,0,.25,0,.5,0,.75,0,.05,.02,.07,.06,.09,.14,.08,.27,.15,.41,.24,.04,.03,.07,.03,.11,0,.23-.13,.46-.27,.69-.4,.19-.11,.35-.06,.46,.12,.29,.51,.59,1.02,.88,1.52,.11,.19,.07,.36-.13,.47-.23,.13-.45,.26-.68,.39-.04,.02-.05,.05-.05,.09,0,.16,0,.32,0,.48,0,.05,.01,.07,.05,.09,.23,.13,.46,.26,.69,.4,.18,.11,.23,.27,.12,.45-.29,.51-.59,1.03-.89,1.54-.11,.18-.27,.23-.45,.12-.23-.13-.45-.26-.68-.39-.05-.03-.08-.02-.13,0-.13,.08-.26,.16-.4,.23-.05,.02-.06,.05-.06,.1,0,.26,0,.52,0,.79,0,.21-.12,.34-.33,.34-.59,0-1.18,0-1.77,0-.21,0-.33-.12-.33-.33,0-.26,0-.53,0-.79,0-.05-.02-.07-.06-.1-.14-.07-.27-.15-.41-.24-.04-.02-.06-.03-.1,0-.22,.13-.45,.26-.67,.39-.21,.12-.36,.08-.48-.13-.29-.5-.58-1-.87-1.5-.11-.2-.07-.36,.13-.47,.22-.13,.45-.26,.67-.39,.04-.02,.05-.05,.05-.1,0-.16,0-.31,0-.47,0-.05-.01-.08-.06-.1-.23-.13-.45-.26-.68-.39-.19-.11-.23-.27-.12-.46,.29-.51,.59-1.03,.89-1.54,.1-.18,.27-.22,.45-.12,.23,.13,.46,.26,.69,.4,.04,.02,.07,.02,.11,0,.13-.08,.27-.16,.41-.24,.04-.02,.06-.04,.06-.09,0-.25,0-.5,0-.75,0-.19,.06-.32,.24-.38h1.95ZM1.33,6.08c.22-.13,.44-.25,.65-.38,.15-.08,.26-.08,.39,.03,.21,.17,.43,.3,.68,.39,.15,.06,.21,.16,.21,.32,0,.22,0,.45,0,.67,0,.03,0,.05,0,.08h1.22s0-.06,0-.09c0-.23,0-.46,0-.69,0-.14,.06-.24,.19-.29,.26-.1,.5-.24,.72-.42,.1-.08,.22-.09,.34-.03,.06,.03,.11,.06,.17,.1,.17,.1,.34,.19,.51,.3,.2-.35,.41-.7,.61-1.05-.02-.01-.03-.02-.04-.03-.2-.12-.4-.23-.61-.35-.15-.09-.2-.19-.17-.36,.04-.26,.04-.53,0-.79-.02-.14,.03-.24,.14-.32,.07-.05,.15-.09,.23-.13,.15-.09,.3-.17,.45-.26-.2-.35-.41-.7-.61-1.06-.22,.13-.44,.25-.66,.38-.13,.08-.26,.07-.37-.02-.21-.17-.44-.31-.7-.4-.14-.05-.21-.16-.2-.31,0-.23,0-.45,0-.68,0-.03,0-.05,0-.08h-1.22c0,.24,0,.48,0,.72,0,.2-.06,.29-.25,.36-.23,.09-.44,.21-.63,.37-.15,.12-.25,.13-.42,.03-.2-.11-.39-.23-.59-.34-.02,0-.03-.02-.06-.03-.2,.35-.4,.7-.61,1.05,.03,.02,.05,.03,.07,.04,.2,.11,.39,.23,.59,.34,.14,.08,.19,.19,.17,.35-.04,.26-.04,.52,0,.77,.03,.17-.02,.27-.17,.36-.2,.11-.39,.23-.59,.34-.02,.01-.04,.03-.06,.04,.2,.34,.39,.68,.59,1.01,0,.01,.01,.02,.03,.04Z"/>
      <path d="M3.87,5.67c-1.04,0-1.86-.92-1.74-1.96,.1-.88,.84-1.55,1.72-1.56,.19,0,.32,.12,.33,.3,0,.18-.13,.31-.32,.31-.59,.01-1.08,.47-1.12,1.05-.05,.58,.35,1.1,.92,1.21,.48,.1,.97-.13,1.21-.57,.06-.11,.14-.19,.27-.19,.12,0,.21,.04,.28,.14,.06,.1,.06,.21,0,.31-.25,.46-.64,.76-1.15,.89-.13,.03-.27,.04-.4,.06Z"/>
      <path d="M3.88,3.28c.08,.02,.17,.04,.25,.07,.04,.02,.07,.02,.11,0,.24-.14,.49-.28,.73-.42,.17-.1,.37-.03,.44,.14,.06,.15,0,.3-.14,.39-.24,.14-.48,.28-.72,.42-.04,.02-.06,.05-.06,.1-.04,.33-.33,.57-.66,.54-.33-.03-.57-.31-.56-.64,.01-.32,.28-.58,.61-.59Z"/>
    </g>
  </g>
</svg>