<svg width="433" height="299" viewBox="0 0 433 299" fill="none" xmlns="http://www.w3.org/2000/svg">
<circle cx="6.5" cy="6.5" r="6.5" fill="#297BFF" fill-opacity="0.1"/>
<circle cx="6.5" cy="32.5" r="6.5" fill="#297BFF" fill-opacity="0.1"/>
<circle cx="6.5" cy="58.5" r="6.5" fill="#297BFF" fill-opacity="0.1"/>
<circle cx="6.5" cy="84.5" r="6.5" fill="#297BFF" fill-opacity="0.1"/>
<circle cx="6.5" cy="110.5" r="6.5" fill="#297BFF" fill-opacity="0.1"/>
<circle cx="6.5" cy="136.5" r="6.5" fill="#297BFF" fill-opacity="0.1"/>
<circle cx="6.5" cy="162.5" r="6.5" fill="#297BFF" fill-opacity="0.1"/>
<circle cx="6.5" cy="188.5" r="6.5" fill="#297BFF" fill-opacity="0.1"/>
<circle cx="6.5" cy="214.5" r="6.5" fill="#297BFF" fill-opacity="0.1"/>
<circle cx="6.5" cy="240.5" r="6.5" fill="#297BFF" fill-opacity="0.1"/>
<circle cx="6.5" cy="266.5" r="6.5" fill="#297BFF" fill-opacity="0.1"/>
<circle cx="6.5" cy="292.5" r="6.5" fill="#297BFF" fill-opacity="0.1"/>
<circle cx="36.5" cy="6.5" r="6.5" fill="#297BFF" fill-opacity="0.1"/>
<circle cx="36.5" cy="32.5" r="6.5" fill="#297BFF" fill-opacity="0.1"/>
<circle cx="36.5" cy="58.5" r="6.5" fill="#297BFF" fill-opacity="0.1"/>
<circle cx="36.5" cy="84.5" r="6.5" fill="#297BFF" fill-opacity="0.1"/>
<circle cx="36.5" cy="110.5" r="6.5" fill="#297BFF" fill-opacity="0.1"/>
<circle cx="36.5" cy="136.5" r="6.5" fill="#297BFF" fill-opacity="0.1"/>
<circle cx="36.5" cy="162.5" r="6.5" fill="#297BFF" fill-opacity="0.1"/>
<circle cx="36.5" cy="188.5" r="6.5" fill="#297BFF" fill-opacity="0.1"/>
<circle cx="36.5" cy="214.5" r="6.5" fill="#297BFF" fill-opacity="0.1"/>
<circle cx="36.5" cy="240.5" r="6.5" fill="#297BFF" fill-opacity="0.1"/>
<circle cx="36.5" cy="266.5" r="6.5" fill="#297BFF" fill-opacity="0.1"/>
<circle cx="36.5" cy="292.5" r="6.5" fill="#297BFF" fill-opacity="0.1"/>
<circle cx="66.5" cy="6.5" r="6.5" fill="#297BFF" fill-opacity="0.1"/>
<circle cx="66.5" cy="32.5" r="6.5" fill="#297BFF" fill-opacity="0.1"/>
<circle cx="66.5" cy="58.5" r="6.5" fill="#297BFF" fill-opacity="0.1"/>
<circle cx="66.5" cy="84.5" r="6.5" fill="#297BFF" fill-opacity="0.1"/>
<circle cx="66.5" cy="110.5" r="6.5" fill="#297BFF" fill-opacity="0.1"/>
<circle cx="66.5" cy="136.5" r="6.5" fill="#297BFF" fill-opacity="0.1"/>
<circle cx="66.5" cy="162.5" r="6.5" fill="#297BFF" fill-opacity="0.1"/>
<circle cx="66.5" cy="188.5" r="6.5" fill="#297BFF" fill-opacity="0.1"/>
<circle cx="66.5" cy="214.5" r="6.5" fill="#297BFF" fill-opacity="0.1"/>
<circle cx="66.5" cy="240.5" r="6.5" fill="#297BFF" fill-opacity="0.1"/>
<circle cx="66.5" cy="266.5" r="6.5" fill="#297BFF" fill-opacity="0.1"/>
<circle cx="66.5" cy="292.5" r="6.5" fill="#297BFF" fill-opacity="0.1"/>
<circle cx="96.5" cy="6.5" r="6.5" fill="#297BFF" fill-opacity="0.1"/>
<circle cx="96.5" cy="32.5" r="6.5" fill="#297BFF" fill-opacity="0.1"/>
<circle cx="96.5" cy="58.5" r="6.5" fill="#297BFF" fill-opacity="0.1"/>
<circle cx="96.5" cy="84.5" r="6.5" fill="#297BFF" fill-opacity="0.1"/>
<circle cx="96.5" cy="110.5" r="6.5" fill="#297BFF" fill-opacity="0.1"/>
<circle cx="96.5" cy="136.5" r="6.5" fill="#297BFF" fill-opacity="0.1"/>
<circle cx="96.5" cy="162.5" r="6.5" fill="#297BFF" fill-opacity="0.1"/>
<circle cx="96.5" cy="188.5" r="6.5" fill="#297BFF" fill-opacity="0.1"/>
<circle cx="96.5" cy="214.5" r="6.5" fill="#297BFF" fill-opacity="0.1"/>
<circle cx="96.5" cy="240.5" r="6.5" fill="#297BFF" fill-opacity="0.1"/>
<circle cx="96.5" cy="266.5" r="6.5" fill="#297BFF" fill-opacity="0.1"/>
<circle cx="96.5" cy="292.5" r="6.5" fill="#297BFF" fill-opacity="0.1"/>
<circle cx="126.5" cy="6.5" r="6.5" fill="#297BFF" fill-opacity="0.1"/>
<circle cx="126.5" cy="32.5" r="6.5" fill="#297BFF" fill-opacity="0.1"/>
<circle cx="126.5" cy="58.5" r="6.5" fill="#297BFF" fill-opacity="0.1"/>
<circle cx="126.5" cy="84.5" r="6.5" fill="#297BFF" fill-opacity="0.1"/>
<circle cx="126.5" cy="110.5" r="6.5" fill="#297BFF" fill-opacity="0.1"/>
<circle cx="126.5" cy="136.5" r="6.5" fill="#297BFF" fill-opacity="0.1"/>
<circle cx="126.5" cy="162.5" r="6.5" fill="#297BFF" fill-opacity="0.1"/>
<circle cx="126.5" cy="188.5" r="6.5" fill="#297BFF" fill-opacity="0.1"/>
<circle cx="126.5" cy="214.5" r="6.5" fill="#297BFF" fill-opacity="0.1"/>
<circle cx="126.5" cy="240.5" r="6.5" fill="#297BFF" fill-opacity="0.1"/>
<circle cx="126.5" cy="266.5" r="6.5" fill="#297BFF" fill-opacity="0.1"/>
<circle cx="126.5" cy="292.5" r="6.5" fill="#297BFF" fill-opacity="0.1"/>
<circle cx="156.5" cy="6.5" r="6.5" fill="#297BFF" fill-opacity="0.1"/>
<circle cx="156.5" cy="32.5" r="6.5" fill="#297BFF" fill-opacity="0.1"/>
<circle cx="156.5" cy="58.5" r="6.5" fill="#297BFF" fill-opacity="0.1"/>
<circle cx="156.5" cy="84.5" r="6.5" fill="#297BFF" fill-opacity="0.1"/>
<circle cx="156.5" cy="110.5" r="6.5" fill="#297BFF" fill-opacity="0.1"/>
<circle cx="156.5" cy="136.5" r="6.5" fill="#297BFF" fill-opacity="0.1"/>
<circle cx="156.5" cy="162.5" r="6.5" fill="#297BFF" fill-opacity="0.1"/>
<circle cx="156.5" cy="188.5" r="6.5" fill="#297BFF" fill-opacity="0.1"/>
<circle cx="156.5" cy="214.5" r="6.5" fill="#297BFF" fill-opacity="0.1"/>
<circle cx="156.5" cy="240.5" r="6.5" fill="#297BFF" fill-opacity="0.1"/>
<circle cx="156.5" cy="266.5" r="6.5" fill="#297BFF" fill-opacity="0.1"/>
<circle cx="156.5" cy="292.5" r="6.5" fill="#297BFF" fill-opacity="0.1"/>
<circle cx="186.5" cy="6.5" r="6.5" fill="#297BFF" fill-opacity="0.1"/>
<circle cx="186.5" cy="32.5" r="6.5" fill="#297BFF" fill-opacity="0.1"/>
<circle cx="186.5" cy="58.5" r="6.5" fill="#297BFF" fill-opacity="0.1"/>
<circle cx="186.5" cy="84.5" r="6.5" fill="#297BFF" fill-opacity="0.1"/>
<circle cx="186.5" cy="110.5" r="6.5" fill="#297BFF" fill-opacity="0.1"/>
<circle cx="186.5" cy="136.5" r="6.5" fill="#297BFF" fill-opacity="0.1"/>
<circle cx="186.5" cy="162.5" r="6.5" fill="#297BFF" fill-opacity="0.1"/>
<circle cx="186.5" cy="188.5" r="6.5" fill="#297BFF" fill-opacity="0.1"/>
<circle cx="186.5" cy="214.5" r="6.5" fill="#297BFF" fill-opacity="0.1"/>
<circle cx="186.5" cy="240.5" r="6.5" fill="#297BFF" fill-opacity="0.1"/>
<circle cx="186.5" cy="266.5" r="6.5" fill="#297BFF" fill-opacity="0.1"/>
<circle cx="186.5" cy="292.5" r="6.5" fill="#297BFF" fill-opacity="0.1"/>
<circle cx="216.5" cy="6.5" r="6.5" fill="#297BFF" fill-opacity="0.1"/>
<circle cx="216.5" cy="32.5" r="6.5" fill="#297BFF" fill-opacity="0.1"/>
<circle cx="216.5" cy="58.5" r="6.5" fill="#297BFF" fill-opacity="0.1"/>
<circle cx="216.5" cy="84.5" r="6.5" fill="#297BFF" fill-opacity="0.1"/>
<circle cx="216.5" cy="110.5" r="6.5" fill="#297BFF" fill-opacity="0.1"/>
<circle cx="216.5" cy="136.5" r="6.5" fill="#297BFF" fill-opacity="0.1"/>
<circle cx="216.5" cy="162.5" r="6.5" fill="#297BFF" fill-opacity="0.1"/>
<circle cx="216.5" cy="188.5" r="6.5" fill="#297BFF" fill-opacity="0.1"/>
<circle cx="216.5" cy="214.5" r="6.5" fill="#297BFF" fill-opacity="0.1"/>
<circle cx="216.5" cy="240.5" r="6.5" fill="#297BFF" fill-opacity="0.1"/>
<circle cx="216.5" cy="266.5" r="6.5" fill="#297BFF" fill-opacity="0.1"/>
<circle cx="216.5" cy="292.5" r="6.5" fill="#297BFF" fill-opacity="0.1"/>
<circle cx="246.5" cy="6.5" r="6.5" fill="#297BFF" fill-opacity="0.1"/>
<circle cx="246.5" cy="32.5" r="6.5" fill="#297BFF" fill-opacity="0.1"/>
<circle cx="246.5" cy="58.5" r="6.5" fill="#297BFF" fill-opacity="0.1"/>
<circle cx="246.5" cy="84.5" r="6.5" fill="#297BFF" fill-opacity="0.1"/>
<circle cx="246.5" cy="110.5" r="6.5" fill="#297BFF" fill-opacity="0.1"/>
<circle cx="246.5" cy="136.5" r="6.5" fill="#297BFF" fill-opacity="0.1"/>
<circle cx="246.5" cy="162.5" r="6.5" fill="#297BFF" fill-opacity="0.1"/>
<circle cx="246.5" cy="188.5" r="6.5" fill="#297BFF" fill-opacity="0.1"/>
<circle cx="246.5" cy="214.5" r="6.5" fill="#297BFF" fill-opacity="0.1"/>
<circle cx="246.5" cy="240.5" r="6.5" fill="#297BFF" fill-opacity="0.1"/>
<circle cx="246.5" cy="266.5" r="6.5" fill="#297BFF" fill-opacity="0.1"/>
<circle cx="246.5" cy="292.5" r="6.5" fill="#297BFF" fill-opacity="0.1"/>
<circle cx="276.5" cy="6.5" r="6.5" fill="#297BFF" fill-opacity="0.1"/>
<circle cx="276.5" cy="32.5" r="6.5" fill="#297BFF" fill-opacity="0.1"/>
<circle cx="276.5" cy="58.5" r="6.5" fill="#297BFF" fill-opacity="0.1"/>
<circle cx="276.5" cy="84.5" r="6.5" fill="#297BFF" fill-opacity="0.1"/>
<circle cx="276.5" cy="110.5" r="6.5" fill="#297BFF" fill-opacity="0.1"/>
<circle cx="276.5" cy="136.5" r="6.5" fill="#297BFF" fill-opacity="0.1"/>
<circle cx="276.5" cy="162.5" r="6.5" fill="#297BFF" fill-opacity="0.1"/>
<circle cx="276.5" cy="188.5" r="6.5" fill="#297BFF" fill-opacity="0.1"/>
<circle cx="276.5" cy="214.5" r="6.5" fill="#297BFF" fill-opacity="0.1"/>
<circle cx="276.5" cy="240.5" r="6.5" fill="#297BFF" fill-opacity="0.1"/>
<circle cx="276.5" cy="266.5" r="6.5" fill="#297BFF" fill-opacity="0.1"/>
<circle cx="276.5" cy="292.5" r="6.5" fill="#297BFF" fill-opacity="0.1"/>
<circle cx="306.5" cy="6.5" r="6.5" fill="#297BFF" fill-opacity="0.1"/>
<circle cx="306.5" cy="32.5" r="6.5" fill="#297BFF" fill-opacity="0.1"/>
<circle cx="306.5" cy="58.5" r="6.5" fill="#297BFF" fill-opacity="0.1"/>
<circle cx="306.5" cy="84.5" r="6.5" fill="#297BFF" fill-opacity="0.1"/>
<circle cx="306.5" cy="110.5" r="6.5" fill="#297BFF" fill-opacity="0.1"/>
<circle cx="306.5" cy="136.5" r="6.5" fill="#297BFF" fill-opacity="0.1"/>
<circle cx="306.5" cy="162.5" r="6.5" fill="#297BFF" fill-opacity="0.1"/>
<circle cx="306.5" cy="188.5" r="6.5" fill="#297BFF" fill-opacity="0.1"/>
<circle cx="306.5" cy="214.5" r="6.5" fill="#297BFF" fill-opacity="0.1"/>
<circle cx="306.5" cy="240.5" r="6.5" fill="#297BFF" fill-opacity="0.1"/>
<circle cx="306.5" cy="266.5" r="6.5" fill="#297BFF" fill-opacity="0.1"/>
<circle cx="306.5" cy="292.5" r="6.5" fill="#297BFF" fill-opacity="0.1"/>
<circle cx="336.5" cy="6.5" r="6.5" fill="#297BFF" fill-opacity="0.1"/>
<circle cx="336.5" cy="32.5" r="6.5" fill="#297BFF" fill-opacity="0.1"/>
<circle cx="336.5" cy="58.5" r="6.5" fill="#297BFF" fill-opacity="0.1"/>
<circle cx="336.5" cy="84.5" r="6.5" fill="#297BFF" fill-opacity="0.1"/>
<circle cx="336.5" cy="110.5" r="6.5" fill="#297BFF" fill-opacity="0.1"/>
<circle cx="336.5" cy="136.5" r="6.5" fill="#297BFF" fill-opacity="0.1"/>
<circle cx="336.5" cy="162.5" r="6.5" fill="#297BFF" fill-opacity="0.1"/>
<circle cx="336.5" cy="188.5" r="6.5" fill="#297BFF" fill-opacity="0.1"/>
<circle cx="336.5" cy="214.5" r="6.5" fill="#297BFF" fill-opacity="0.1"/>
<circle cx="336.5" cy="240.5" r="6.5" fill="#297BFF" fill-opacity="0.1"/>
<circle cx="336.5" cy="266.5" r="6.5" fill="#297BFF" fill-opacity="0.1"/>
<circle cx="336.5" cy="292.5" r="6.5" fill="#297BFF" fill-opacity="0.1"/>
<circle cx="366.5" cy="6.5" r="6.5" fill="#297BFF" fill-opacity="0.1"/>
<circle cx="366.5" cy="32.5" r="6.5" fill="#297BFF" fill-opacity="0.1"/>
<circle cx="366.5" cy="58.5" r="6.5" fill="#297BFF" fill-opacity="0.1"/>
<circle cx="366.5" cy="84.5" r="6.5" fill="#297BFF" fill-opacity="0.1"/>
<circle cx="366.5" cy="110.5" r="6.5" fill="#297BFF" fill-opacity="0.1"/>
<circle cx="366.5" cy="136.5" r="6.5" fill="#297BFF" fill-opacity="0.1"/>
<circle cx="366.5" cy="162.5" r="6.5" fill="#297BFF" fill-opacity="0.1"/>
<circle cx="366.5" cy="188.5" r="6.5" fill="#297BFF" fill-opacity="0.1"/>
<circle cx="366.5" cy="214.5" r="6.5" fill="#297BFF" fill-opacity="0.1"/>
<circle cx="366.5" cy="240.5" r="6.5" fill="#297BFF" fill-opacity="0.1"/>
<circle cx="366.5" cy="266.5" r="6.5" fill="#297BFF" fill-opacity="0.1"/>
<circle cx="366.5" cy="292.5" r="6.5" fill="#297BFF" fill-opacity="0.1"/>
<circle cx="396.5" cy="6.5" r="6.5" fill="#297BFF" fill-opacity="0.1"/>
<circle cx="396.5" cy="32.5" r="6.5" fill="#297BFF" fill-opacity="0.1"/>
<circle cx="396.5" cy="58.5" r="6.5" fill="#297BFF" fill-opacity="0.1"/>
<circle cx="396.5" cy="84.5" r="6.5" fill="#297BFF" fill-opacity="0.1"/>
<circle cx="396.5" cy="110.5" r="6.5" fill="#297BFF" fill-opacity="0.1"/>
<circle cx="396.5" cy="136.5" r="6.5" fill="#297BFF" fill-opacity="0.1"/>
<circle cx="396.5" cy="162.5" r="6.5" fill="#297BFF" fill-opacity="0.1"/>
<circle cx="396.5" cy="188.5" r="6.5" fill="#297BFF" fill-opacity="0.1"/>
<circle cx="396.5" cy="214.5" r="6.5" fill="#297BFF" fill-opacity="0.1"/>
<circle cx="396.5" cy="240.5" r="6.5" fill="#297BFF" fill-opacity="0.1"/>
<circle cx="396.5" cy="266.5" r="6.5" fill="#297BFF" fill-opacity="0.1"/>
<circle cx="396.5" cy="292.5" r="6.5" fill="#297BFF" fill-opacity="0.1"/>
<circle cx="426.5" cy="6.5" r="6.5" fill="#297BFF" fill-opacity="0.1"/>
<circle cx="426.5" cy="32.5" r="6.5" fill="#297BFF" fill-opacity="0.1"/>
<circle cx="426.5" cy="58.5" r="6.5" fill="#297BFF" fill-opacity="0.1"/>
<circle cx="426.5" cy="84.5" r="6.5" fill="#297BFF" fill-opacity="0.1"/>
<circle cx="426.5" cy="110.5" r="6.5" fill="#297BFF" fill-opacity="0.1"/>
<circle cx="426.5" cy="136.5" r="6.5" fill="#297BFF" fill-opacity="0.1"/>
<circle cx="426.5" cy="162.5" r="6.5" fill="#297BFF" fill-opacity="0.1"/>
<circle cx="426.5" cy="188.5" r="6.5" fill="#297BFF" fill-opacity="0.1"/>
<circle cx="426.5" cy="214.5" r="6.5" fill="#297BFF" fill-opacity="0.1"/>
<circle cx="426.5" cy="240.5" r="6.5" fill="#297BFF" fill-opacity="0.1"/>
<circle cx="426.5" cy="266.5" r="6.5" fill="#297BFF" fill-opacity="0.1"/>
<circle cx="426.5" cy="292.5" r="6.5" fill="#297BFF" fill-opacity="0.1"/>
</svg>
