<?xml version="1.0" encoding="UTF-8"?>
<svg id="Layer_2" data-name="Layer 2" xmlns="http://www.w3.org/2000/svg" viewBox="0 0 12.47 11.4">
  <defs>
    <style>
      .cls-1 {
        fill: #297bff;
      }
    </style>
  </defs>
  <g id="Layer_1-2" data-name="Layer 1">
    <rect class="cls-1" width="7.18" height="11.4" rx="1.34" ry="1.34"/>
    <g>
      <path d="M6.83,10.25c-.07-.05-.09-.12-.09-.21,0-.88,0-1.75,0-2.63,0-.18,.04-.22,.21-.22,.04,0,.08,0,.13,0-.03-.13-.06-.25-.08-.37-.12-.78,.26-1.58,.94-1.98,.06-.04,.09-.08,.09-.15,0-.14,0-.29,0-.43,0-.12,.05-.17,.17-.17,.24,0,.49,0,.73,0,.11,0,.16,.05,.17,.16,0,.1,0,.21,0,.3,.15,.03,.29,.06,.43,.1,.04,0,.09,.02,.13,.04,.14,.08,.3,.09,.46,.09,.27,0,.54,0,.81,0,.11,0,.18,.05,.18,.14,0,.09-.07,.14-.18,.14-.21,0-.42,0-.64,0,.72,.75,.84,1.58,.38,2.48,.12,.13,.24,.26,.36,.39,.01,.01,.05,.01,.07,0,.12-.03,.22,0,.3,.09,.33,.32,.66,.64,.99,.96,.04,.04,.07,.11,.1,.16v.14s-.05,.1-.09,.14c-.11,.12-.23,.24-.35,.36-.14,.14-.31,.14-.46,0-.33-.32-.65-.63-.98-.95-.08-.08-.12-.18-.1-.3,0-.03,0-.06-.01-.08-.12-.12-.24-.23-.35-.34-.13,.07-.24,.14-.36,.2-.07,.03-.09,.06-.09,.14,0,.52,0,1.05,0,1.57,0,.09-.02,.16-.09,.22h-1.05c-.07-.04-.1-.11-.1-.19,0-.51,0-1.02,0-1.53,0-.03,0-.08-.03-.09-.15-.06-.3-.12-.46-.18,0,.03,0,.07,0,.1,0,.56,0,1.13,0,1.69,0,.08-.02,.15-.09,.19h-1.05Zm.44-3.71c0,.93,.75,1.69,1.67,1.69,.93,0,1.69-.74,1.7-1.68,0-.92-.75-1.69-1.67-1.69-.94,0-1.7,.75-1.7,1.68Zm.41,3.43s0-.02,0-.02c0-.61,0-1.23,0-1.84,0-.03-.02-.06-.05-.09-.11-.14-.24-.27-.35-.41-.09-.12-.11-.13-.26-.1v2.46h.64Zm1.72-1.48c-.22,.01-.44,.03-.65,.04v1.44h.65v-1.48Zm2.8,.74c-.35-.34-.69-.67-1.02-.99-.14,.13-.28,.25-.42,.38,.35,.34,.7,.68,1.02,.99,.14-.13,.28-.25,.42-.38Zm-3.88-4.83v.28c.12-.03,.23-.05,.34-.07,.16-.03,.16-.03,.14-.19,0,0,0-.01-.01-.02h-.47Zm2.03,3.55l.02-.02c.11,.12,.22,.24,.33,.36,.04-.04,.08-.08,.12-.12-.01,0-.02,.01-.03,.02-.11-.12-.22-.24-.33-.36-.04,.04-.07,.08-.11,.12Z"/>
      <path d="M5.12,10.25c-.08-.04-.1-.11-.1-.19,0-1.33,0-2.65,0-3.98,0-.14,.04-.19,.19-.19,.29,0,.57,0,.86,0,.14,0,.18,.05,.18,.19,0,1.33,0,2.65,0,3.98,0,.08-.03,.15-.1,.19h-1.03Zm.19-4.07v3.78h.65v-3.78h-.65Z"/>
      <path d="M3.47,10.25c-.07-.05-.09-.12-.09-.21,0-1.04,0-2.08,0-3.11,0-.16,.04-.21,.2-.21,.28,0,.55,0,.83,0,.16,0,.2,.04,.2,.2,0,1.04,0,2.09,0,3.13,0,.08-.02,.15-.09,.19h-1.05Zm.85-3.24h-.65v2.95h.65v-2.95Z"/>
      <path d="M12.47,1.44c-.05,.07-.11,.09-.19,.09-.88,0-1.76,0-2.64,0-.02,0-.05,0-.07,0-.07-.01-.12-.06-.12-.13,0-.07,.03-.12,.1-.14,.03,0,.06,0,.1,0,.88,0,1.76,0,2.64,0,.09,0,.16,.02,.2,.1v.09Z"/>
      <path d="M12.47,2.92c-.05,.07-.13,.09-.22,.09-.87,0-1.73,0-2.6,0-.03,0-.06,0-.09,0-.08-.01-.13-.08-.13-.15,0-.07,.06-.13,.14-.13,.02,0,.04,0,.05,0,.88,0,1.76,0,2.64,0,.08,0,.15,.02,.2,.09v.11Z"/>
      <path d="M12.47,4.37c-.04,.07-.11,.1-.19,.1-.88,0-1.76,0-2.64,0-.03,0-.06,0-.09,0-.07-.02-.11-.07-.1-.13,0-.05,.06-.09,.1-.13,.02-.02,.06-.01,.09-.01,.88,0,1.77,0,2.65,0,.08,0,.15,.02,.19,.1v.09Z"/>
      <path d="M7.38,3.16c0,1.1-.89,2-2,2-1.11,0-2-.9-2-2,0-1.1,.9-2,2-1.99,1.1,0,1.99,.9,1.99,2Zm-2.14-1.7c-.51-.04-1.19,.44-1.44,1.03-.29,.68-.1,1.48,.46,1.96,.58,.5,1.36,.51,1.86,.24-.02-.03-.03-.06-.05-.08-.26-.44-.52-.88-.77-1.32-.03-.06-.05-.13-.05-.2,0-.51,0-1.02,0-1.53,0-.03,0-.06,0-.09Zm1.84,1.55c-.05-.88-.83-1.54-1.55-1.55v1.55h1.55Zm-1.45,.29c.25,.42,.49,.83,.74,1.25,.42-.32,.66-.73,.72-1.25h-1.46Z"/>
      <path d="M8.55,2.22c-.12,0-.24,0-.36,0-.1,0-.16-.05-.16-.15,0-.25,0-.51,0-.76,0-.1,.06-.15,.16-.15,.25,0,.5,0,.74,0,.1,0,.16,.05,.16,.15,0,.25,0,.51,0,.76,0,.1-.06,.15-.16,.15-.13,0-.25,0-.38,0Zm-.23-.78v.49h.48v-.49h-.48Z"/>
      <path d="M8.57,2.63c.12,0,.24,0,.36,0,.11,0,.16,.05,.16,.16,0,.25,0,.5,0,.74,0,.11-.05,.16-.16,.16-.25,0-.5,0-.74,0-.11,0-.16-.05-.16-.16,0-.25,0-.5,0-.74,0-.11,.05-.16,.16-.16,.13,0,.25,0,.38,0Zm.23,.77v-.49h-.48v.49h.48Z"/>
      <path d="M10.27,1.85c.22,0,.43,0,.65,0,.11,0,.18,.05,.18,.14,0,.09-.07,.14-.18,.14-.44,0-.87,0-1.31,0-.13,0-.21-.11-.15-.21,.03-.04,.1-.07,.15-.07,.22,0,.44,0,.66,0Z"/>
      <path d="M10.27,3.59c-.22,0-.44,0-.66,0-.11,0-.18-.05-.18-.14,0-.08,.07-.14,.17-.14,.44,0,.87,0,1.31,0,.11,0,.18,.06,.17,.15,0,.09-.07,.14-.18,.14-.22,0-.43,0-.65,0Z"/>
      <path d="M10.42,6.55c-.01,.82-.68,1.47-1.5,1.46-.8-.01-1.45-.68-1.44-1.48,0-.83,.68-1.48,1.51-1.46,.79,.01,1.45,.69,1.44,1.48Zm-1.92,.07c-.23-.35-.21-.67,.05-.89,.23-.2,.57-.2,.8,0,.25,.22,.27,.54,.04,.88,.25,.12,.43,.31,.54,.56,.29-.4,.3-1.11-.23-1.55-.49-.41-1.21-.37-1.64,.1-.45,.49-.34,1.17-.11,1.44,.11-.25,.29-.43,.54-.55Zm.45,1.11c.26,0,.5-.08,.72-.24,.04-.03,.05-.06,.04-.11-.09-.33-.41-.56-.75-.57-.35,0-.66,.23-.76,.56-.02,.05,0,.08,.04,.12,.21,.16,.45,.24,.72,.24Zm0-1.21c.18,0,.33-.14,.33-.32,0-.18-.15-.34-.33-.34-.18,0-.33,.15-.33,.33,0,.18,.14,.33,.32,.33Z"/>
    </g>
  </g>
</svg>