<svg width="101" height="26" viewBox="0 0 101 26" fill="none" xmlns="http://www.w3.org/2000/svg">
<path d="M6.36 19.32C4.02 19.32 1.66 18.74 0.26 17.88L1.78 14.44C3.1 15.22 4.86 15.72 6.4 15.72C7.74 15.72 8.22 15.44 8.22 14.96C8.22 13.2 0.48 14.62 0.48 9.4C0.48 6.8 2.66 4.68 7 4.68C8.88 4.68 10.82 5.08 12.28 5.9L10.86 9.32C9.48 8.62 8.18 8.28 6.96 8.28C5.58 8.28 5.14 8.68 5.14 9.16C5.14 10.84 12.88 9.44 12.88 14.6C12.88 17.16 10.7 19.32 6.36 19.32ZM19.0445 7.86C22.8045 7.86 24.9645 9.48 24.9645 13.12V19H20.7645V17.56C20.2445 18.66 19.2045 19.2 17.6645 19.2C14.9845 19.2 13.6045 17.68 13.6045 15.8C13.6045 13.68 15.2045 12.5 18.6045 12.5H20.4245C20.2845 11.66 19.6445 11.22 18.3645 11.22C17.3845 11.22 16.2845 11.54 15.5645 12.08L14.1245 9.1C15.4045 8.3 17.3445 7.86 19.0445 7.86ZM19.0245 16.48C19.6445 16.48 20.2045 16.16 20.4445 15.44V14.68H19.3245C18.3645 14.68 17.9445 15 17.9445 15.6C17.9445 16.1 18.3445 16.48 19.0245 16.48ZM26.918 19V4.16H31.438V19H26.918ZM45.0814 13.52C45.0814 13.84 45.0414 14.26 45.0214 14.58H37.4214C37.7414 15.42 38.5014 15.86 39.6214 15.86C40.6214 15.86 41.1814 15.6 41.9014 15.06L44.2614 17.44C43.2014 18.6 41.6614 19.2 39.4814 19.2C35.4614 19.2 32.8614 16.78 32.8614 13.52C32.8614 10.2 35.5214 7.86 39.0614 7.86C42.3014 7.86 45.0814 9.82 45.0814 13.52ZM39.1014 10.94C38.1614 10.94 37.5214 11.48 37.3414 12.4H40.8614C40.6814 11.48 40.0214 10.94 39.1014 10.94ZM50.7878 19.2C48.9078 19.2 46.9478 18.76 45.8278 18.12L47.0678 15.14C48.1078 15.76 49.5878 16.12 50.8878 16.12C51.9878 16.12 52.2878 15.92 52.2878 15.6C52.2878 14.48 45.9878 15.98 45.9878 11.6C45.9878 9.54 47.9078 7.86 51.5878 7.86C53.1878 7.86 54.8878 8.16 56.0478 8.76L54.8078 11.74C53.6878 11.12 52.5678 10.94 51.6478 10.94C50.4878 10.94 50.1678 11.2 50.1678 11.46C50.1678 12.6 56.4478 11.12 56.4478 15.5C56.4478 17.48 54.5878 19.2 50.7878 19.2ZM86.7008 7.86C90.4608 7.86 92.6208 9.48 92.6208 13.12V19H88.4208V17.56C87.9008 18.66 86.8608 19.2 85.3208 19.2C82.6408 19.2 81.2608 17.68 81.2608 15.8C81.2608 13.68 82.8608 12.5 86.2608 12.5H88.0808C87.9408 11.66 87.3008 11.22 86.0208 11.22C85.0408 11.22 83.9408 11.54 83.2208 12.08L81.7808 9.1C83.0608 8.3 85.0008 7.86 86.7008 7.86ZM86.6808 16.48C87.3008 16.48 87.8608 16.16 88.1008 15.44V14.68H86.9808C86.0208 14.68 85.6008 15 85.6008 15.6C85.6008 16.1 86.0008 16.48 86.6808 16.48ZM94.5742 19V4.16H99.0942V19H94.5742Z" fill="white"/>
<path d="M70.168 19.293C68.6901 19.293 67.9512 18.3522 67.9512 16.4707C67.9512 15.6113 68.1074 14.5371 68.4199 13.248C66.5449 15.9824 64.6341 17.7793 62.6875 18.6387C61.9974 18.9447 61.3008 19.0977 60.5977 19.0977C59.7643 19.0977 59.2109 18.7331 58.9375 18.0039C58.8529 17.7891 58.8105 17.4961 58.8105 17.125C58.8105 16.7539 58.8757 16.3014 59.0059 15.7676C59.1361 15.2272 59.3053 14.6836 59.5137 14.1367C59.7285 13.5833 59.9694 13.0299 60.2363 12.4766C60.5098 11.9167 60.7865 11.373 61.0664 10.8457C61.3529 10.3118 61.6296 9.79753 61.8965 9.30273C62.821 7.59049 63.2832 6.44792 63.2832 5.875C63.2832 5.29557 62.9316 5.00586 62.2285 5.00586C61.4408 5.00586 60.6237 5.41927 59.7773 6.24609C59.569 6.45443 59.4062 6.63997 59.2891 6.80273C58.9049 6.60091 58.7129 6.39258 58.7129 6.17773C58.7129 5.96289 58.7715 5.76432 58.8887 5.58203C59.0124 5.39323 59.1751 5.21419 59.377 5.04492C59.5853 4.86914 59.8197 4.70638 60.0801 4.55664C60.347 4.4069 60.6237 4.27344 60.9102 4.15625C61.5156 3.91536 62.0592 3.79492 62.541 3.79492C62.5605 3.79492 62.5768 3.79492 62.5898 3.79492C63.7812 3.79492 64.569 4.22461 64.9531 5.08398C65.1419 5.49414 65.2363 5.96615 65.2363 6.5C65.2363 7.03385 65.1875 7.57747 65.0898 8.13086C64.9987 8.68424 64.8717 9.25391 64.709 9.83984C64.5527 10.4193 64.3997 10.9661 64.25 11.4805C63.8659 12.7695 63.6738 13.5345 63.6738 13.7754C63.6738 14.2897 63.8659 14.5469 64.25 14.5469C64.8034 14.5469 65.5977 14 66.6328 12.9062C67.7461 11.7214 68.8138 10.2272 69.8359 8.42383C70.0638 7.87044 70.334 7.18359 70.6465 6.36328C70.9655 5.53646 71.1706 5.01237 71.2617 4.79102C71.3529 4.56315 71.4635 4.38737 71.5938 4.26367C71.724 4.13997 71.8607 4.04557 72.0039 3.98047C72.2318 3.86328 72.4661 3.80469 72.707 3.80469C72.9479 3.80469 73.0911 3.88281 73.1367 4.03906C73.1823 4.19531 73.179 4.38737 73.127 4.61523C73.0228 5.06445 72.8145 5.55599 72.502 6.08984C71.9095 8.55078 71.6133 10.7773 71.6133 12.7695C71.6133 14.3516 71.8444 15.1426 72.3066 15.1426C73.1139 15.1426 74.0677 14.4427 75.168 13.043C76.2292 11.6953 77.0592 10.1719 77.6582 8.47266C78.0749 7.30078 78.2832 6.29167 78.2832 5.44531C78.2832 4.59245 78.1172 3.93815 77.7852 3.48242C78.0521 3.25456 78.2962 3.14062 78.5176 3.14062C78.7454 3.14062 78.9342 3.19596 79.084 3.30664C79.2402 3.41081 79.3672 3.55078 79.4648 3.72656C79.6536 4.05859 79.748 4.49805 79.748 5.04492C79.748 5.5918 79.6699 6.23633 79.5137 6.97852C79.3574 7.7207 79.1361 8.48568 78.8496 9.27344C78.5697 10.0612 78.2344 10.8587 77.8438 11.666C77.4596 12.4668 77.0332 13.2383 76.5645 13.9805C76.1022 14.7227 75.6074 15.416 75.0801 16.0605C74.5592 16.7051 74.0221 17.2682 73.4688 17.75C72.2839 18.7786 71.1836 19.293 70.168 19.293Z" fill="black"/>
</svg>
